<?xml version="1.0" standalone="no" ?>
<!DOCTYPE svg PUBLIC "-//W3C//DTD SVG 20010904//EN"
  "http://www.w3.org/TR/2001/REC-SVG-20010904/DTD/svg10.dtd">
<svg
  version="1.0"
  xmlns="http://www.w3.org/2000/svg"
  width="512.000000pt"
  height="512.000000pt"
  viewBox="0 0 512.000000 512.000000"
  preserveAspectRatio="xMidYMid meet"
>
<metadata>
Created by potrace 1.14, written by Peter Selinger 2001-2017
</metadata>
<g
    transform="translate(0.000000,512.000000) scale(0.100000,-0.100000)"
    fill="#000000"
    stroke="none"
  >
<path
      d="M2197 3003 c-3 -1086 -5 -1204 -20 -1261 -58 -214 -206 -313 -434
-291 -82 8 -180 56 -228 112 -61 71 -85 129 -100 250 l-6 47 -346 0 -346 0 5
-107 c6 -111 32 -235 69 -319 71 -167 207 -316 372 -408 83 -47 251 -102 367
-121 126 -20 369 -20 491 1 451 76 763 371 844 797 13 68 15 251 15 1288 l0
1209 -340 0 -339 0 -4 -1197z"
    />
<path d="M3040 3915 l0 -285 680 0 680 0 0 285 0 285 -680 0 -680 0 0 -285z" />
<path d="M3040 2575 l0 -285 625 0 625 0 0 285 0 285 -625 0 -625 0 0 -285z" />
<path
      d="M2971 1468 c-23 -76 -99 -211 -166 -296 -58 -71 -124 -136 -215 -211
l-25 -20 918 -1 917 0 0 285 0 285 -708 0 -709 0 -12 -42z"
    />
</g>
</svg>
